HIERARCHY
ROOT Hips
{
	OFFSET -3.958830 18.904000 13.208200
	CHANNELS 6 Xposition Yposition Zposition Zrotation Yrotation Xrotation 
	JOINT LHipJoint
	{
		OFFSET 0.000000 0.000000 0.000000
		CHANNELS 3 Zrotation Yrotation Xrotation
		JOINT LeftUpLeg
		{
			OFFSET 1.800000 -1.400000 0.085000
			CHANNELS 3 Zrotation Yrotation Xrotation
			JOINT LeftLeg
			{
				OFFSET 2.215000 -6.000000 0.000000
				CHANNELS 3 Zrotation Yrotation Xrotation
				JOINT LeftFoot
				{
					OFFSET 2.500000 -6.900000 0.000000
					CHANNELS 3 Zrotation Yrotation Xrotation
					JOINT LeftToeBase
					{
						OFFSET 0.200000 -0.500000 1.950000
						CHANNELS 3 Zrotation Yrotation Xrotation
						End Site
						{
							OFFSET 0.000000 0.000000 0.000000
						}
					}
				}
			}
		}
	}
	JOINT RHipJoint
	{
		OFFSET 0.000000 0.000000 0.000000
		CHANNELS 3 Zrotation Yrotation Xrotation
		JOINT RightUpLeg
		{
			OFFSET -1.800000 -1.400000 0.085000
			CHANNELS 3 Zrotation Yrotation Xrotation
			JOINT RightLeg
			{
				OFFSET -2.215000 -6.000000 0.000000
				CHANNELS 3 Zrotation Yrotation Xrotation
				JOINT RightFoot
				{
					OFFSET -2.500000 -6.900000 0.000000
					CHANNELS 3 Zrotation Yrotation Xrotation
					JOINT RightToeBase
					{
						OFFSET -0.200000 -0.500000 1.950000
						CHANNELS 3 Zrotation Yrotation Xrotation
						End Site
						{
							OFFSET 0.000000 0.000000 0.000000
						}
					}
				}
			}
		}
	}
	JOINT LowerBack
	{
		OFFSET 0.000000 0.000000 0.000000
		CHANNELS 3 Zrotation Yrotation Xrotation
		JOINT Spine
		{
			OFFSET -0.087000 1.940000 -0.288900
			CHANNELS 3 Zrotation Yrotation Xrotation
			JOINT Spine1
			{
				OFFSET 0.000000 1.950000 0.060000
				CHANNELS 3 Zrotation Yrotation Xrotation
				JOINT Neck
				{
					OFFSET 0.000000 0.000000 0.000000
					CHANNELS 3 Zrotation Yrotation Xrotation
					JOINT Neck1
					{
						OFFSET 0.000000 1.600000 0.340000
						CHANNELS 3 Zrotation Yrotation Xrotation
						JOINT Head
						{
							OFFSET 0.000000 1.667000 -0.240000
							CHANNELS 3 Zrotation Yrotation Xrotation
							End Site
							{
								OFFSET 0.000000 0.000000 0.000000
							}
						}
					}
				}
				JOINT LeftShoulder
				{
					OFFSET 0.000000 0.000000 0.000000
					CHANNELS 3 Zrotation Yrotation Xrotation
					JOINT LeftArm
					{
						OFFSET 2.700000 1.550000 -0.730000
						CHANNELS 3 Zrotation Yrotation Xrotation
						JOINT LeftForeArm
						{
							OFFSET 5.450000 0.000000 0.000000
							CHANNELS 3 Zrotation Yrotation Xrotation
							JOINT LeftHand
							{
								OFFSET 3.450000 0.000000 0.000000
								CHANNELS 3 Zrotation Yrotation Xrotation
								JOINT LeftHandIndex1
								{
									OFFSET 0.750000 0.000000 0.000000
									CHANNELS 3 Zrotation Yrotation Xrotation
									End Site
									{
										OFFSET 0.000000 0.000000 0.000000
									}
								}
							}
						}
					}
				}
				JOINT RightShoulder
				{
					OFFSET 0.000000 0.000000 0.000000
					CHANNELS 3 Zrotation Yrotation Xrotation
					JOINT RightArm
					{
						OFFSET -2.700000 1.550000 -0.730000
						CHANNELS 3 Zrotation Yrotation Xrotation
						JOINT RightForeArm
						{
							OFFSET -5.450000 0.000000 0.000000
							CHANNELS 3 Zrotation Yrotation Xrotation
							JOINT RightHand
							{
								OFFSET -3.450000 0.000000 0.000000
								CHANNELS 3 Zrotation Yrotation Xrotation
								JOINT RightHandIndex1
								{
									OFFSET -0.750000 0.000000 0.000000
									CHANNELS 3 Zrotation Yrotation Xrotation
									End Site
									{
										OFFSET 0.000000 0.000000 0.000000
									}
								}
							}
						}
					}
				}
			}
		}
	}
}
MOTION
Frames: 7
Frame Time: 0.016667
-0.021530 16.836750 -1.651050 1.312879 -2.875105 -14.382017 -13.840453 11.707312 2.837768 1.176730 0.585565 3.980719 -8.401500 6.259730 11.496869 -1.228609 5.342958 2.882647 -0.373990 -0.797160 -0.267670 19.331300 -12.893086 3.380403 -25.695346 -0.508615 4.133747 -0.574426 -6.592383 2.283008 -1.300151 -5.445415 2.446747 -0.405580 0.708260 0.402020 -6.764240 4.267847 -8.191046 26.724925 -1.074605 21.201509 -20.558061 4.429221 2.390191 -10.661901 -0.209199 -18.389420 4.178455 -3.075594 81.882545 5.343390 8.816660 -41.162460 -7.368594 -21.478440 8.889234 4.898451 9.889020 -0.946722 153.463768 -32.074296 -111.483143 -3.451111 2.245967 1.987150 -0.130310 0.520220 0.105040 26.895061 22.110667 14.056564 60.039216 0.739871 -12.189520 14.900006 32.183205 1.522380 1.609212 0.057433 -0.981890 1.074070 0.887380 -0.323670 
-0.001080 16.816260 -1.661520 1.258077 -1.254014 -14.357299 -13.847770 11.719155 2.812777 0.741183 0.269983 3.406646 -7.735907 6.141971 12.533146 -1.246409 5.286892 2.891022 -0.356840 -0.783140 -0.259130 19.325993 -12.948334 3.338612 -25.757611 -0.709702 4.483078 -0.698951 -6.682750 2.845234 -1.310410 -5.493114 2.420615 -0.400680 0.701470 0.417930 -6.760399 4.301750 -8.199112 26.719458 -1.289524 21.350485 -21.134260 4.898816 2.323938 -10.413358 0.500971 -18.527488 5.546942 -4.687029 80.742358 6.067190 7.535150 -39.918280 -7.076636 -21.761047 9.087466 1.211416 5.772303 -0.817531 153.185002 -28.222405 -105.712645 -3.459823 2.223467 1.976360 -0.125430 0.523630 0.110030 26.121787 21.862163 14.121193 61.204757 -0.905631 -13.021892 17.468664 31.116091 1.745681 1.634588 0.033265 -0.962950 1.051300 0.878820 -0.320190 
0.014140 16.803200 -1.678530 0.840343 0.092622 -14.756465 -13.860293 11.735193 2.776800 1.030943 0.042692 3.230124 -7.556769 6.197640 13.455261 -1.230603 5.312603 2.863763 -0.351170 -0.773430 -0.262540 19.315895 -13.026747 3.272754 -25.436333 -0.994905 5.013602 -0.807186 -6.788347 3.680324 -1.309294 -5.534708 2.401233 -0.400670 0.688220 0.424770 -6.745240 4.326021 -8.187029 27.267098 -1.844142 21.832903 -21.634626 5.834046 3.439503 -9.950561 0.979106 -19.074515 6.300871 -5.800201 78.795199 6.701770 6.121080 -38.625470 -6.782572 -22.980048 9.621208 -3.337100 1.965174 -1.004617 151.747848 -24.144126 -97.497320 -3.479736 2.209768 1.947250 -0.122220 0.517670 0.105040 25.133280 22.880139 14.666910 62.111016 -1.734706 -14.482722 19.232221 31.592249 1.724080 1.645328 -0.005254 -0.936390 1.019740 0.875800 -0.312530 
0.019590 16.801630 -1.716610 0.573496 1.861026 -16.453387 -13.816080 11.477604 2.671511 1.247361 0.009046 4.497087 -7.160165 6.230556 14.085804 -1.232252 5.403044 2.824944 -0.319290 -0.726240 -0.258020 19.416903 -13.223287 3.193686 -25.574170 -1.491883 6.602101 -1.021959 -7.085851 4.691488 -1.363127 -5.774242 2.326636 -0.362600 0.689930 0.421850 -6.972750 4.886663 -8.189461 27.696637 -3.150874 22.640325 -21.626648 7.393190 8.267542 -9.176387 1.460819 -19.486727 7.393692 -7.002139 75.253855 7.460630 4.846300 -38.889240 -6.326962 -26.269479 10.559141 -7.223941 -1.909708 -2.211421 148.845005 -20.982607 -90.935504 -3.517534 2.173331 1.933580 -0.118020 0.514980 0.117080 23.974757 26.005880 15.409817 61.582112 0.081981 -15.682000 19.216781 31.699236 1.259624 1.612671 -0.041294 -0.931250 1.030990 0.864910 -0.305290 
0.018190 16.813200 -1.757030 0.760419 3.768891 -18.330283 -13.748146 11.088199 2.551450 0.978916 0.081898 6.158704 -6.740506 6.260667 14.581280 -1.241717 5.493513 2.772305 -0.270290 -0.641310 -0.264060 19.573803 -13.432414 3.084823 -26.257103 -1.931480 8.184821 -1.246600 -7.423704 5.873945 -1.423536 -6.064342 2.227814 -0.294620 0.692590 0.410210 -7.320238 5.608929 -8.208989 27.638761 -4.328904 22.938245 -20.995464 9.431471 15.541373 -7.892237 1.665687 -19.971972 7.596367 -7.741738 70.989861 9.038040 3.392870 -39.731770 -5.349980 -31.076351 11.666747 -10.607869 -5.794010 -4.623617 145.003016 -18.007691 -86.050720 -3.561505 2.151922 1.910300 -0.118040 0.510850 0.129410 21.902536 31.055902 16.800732 60.578240 3.306145 -17.039470 17.235991 32.561400 0.409103 1.527589 -0.083622 -0.920820 1.057360 0.859520 -0.290040 
0.016060 16.826210 -1.782530 0.810459 6.371675 -19.340426 -13.751911 10.934528 2.471762 0.793657 0.200897 6.929265 -6.195858 6.153135 14.650124 -1.291192 5.545260 2.750840 -0.226570 -0.572620 -0.294080 19.640566 -13.469107 2.945386 -26.454967 -2.217855 9.560208 -1.300211 -7.673598 7.026818 -1.458878 -6.260642 2.175209 -0.226060 0.728740 0.409190 -7.487227 5.646705 -8.161823 27.325813 -4.418307 21.934532 -19.778484 10.461962 22.527332 -5.463742 1.746044 -20.578780 6.433036 -7.588677 68.028207 9.541020 1.400530 -39.917000 -6.387838 -36.137997 12.629518 -12.082236 -9.192216 -6.955609 141.814787 -16.888209 -84.924037 -3.655139 2.102687 1.890150 -0.099490 0.493360 0.160710 19.348288 36.083540 18.306985 58.712908 5.820497 -17.498343 15.324410 32.818599 -0.195371 1.411465 -0.118918 -0.922310 1.110550 0.871200 -0.265210 
0.019390 16.842110 -1.797820 0.685577 8.659161 -19.204747 -13.768752 10.899721 2.406888 0.867950 0.241636 6.540701 -6.081256 6.073519 14.544626 -1.326224 5.509848 2.775097 -0.202760 -0.519430 -0.333770 19.666542 -13.501193 2.793602 -25.868836 -2.327398 9.661835 -1.582356 -7.697615 8.382102 -1.433553 -6.264428 2.192898 -0.174830 0.767630 0.390850 -7.591487 5.615717 -8.049270 27.674505 -4.059214 20.050206 -20.088000 10.607321 26.780933 -2.956055 1.585001 -20.666167 4.726430 -7.150562 66.003229 9.660530 -0.456240 -39.843310 -7.364256 -39.105207 13.047257 -14.360015 -12.221505 -9.121599 138.997809 -17.336601 -85.004071 -3.737112 2.033792 1.850710 -0.083540 0.466540 0.194120 15.991905 39.339643 19.152657 58.445978 8.670943 -17.139774 12.856122 33.271498 -0.734117 1.341285 -0.151598 -0.923500 1.160990 0.871440 -0.229170 
